<?xml version="1.0" encoding="UTF-8" standalone="no"?>
<!-- Created with Inkscape (http://www.inkscape.org/) -->

<svg
   xmlns:dc="http://purl.org/dc/elements/1.1/"
   xmlns:cc="http://creativecommons.org/ns#"
   xmlns:rdf="http://www.w3.org/1999/02/22-rdf-syntax-ns#"
   xmlns:svg="http://www.w3.org/2000/svg"
   xmlns="http://www.w3.org/2000/svg"
   xmlns:sodipodi="http://sodipodi.sourceforge.net/DTD/sodipodi-0.dtd"
   xmlns:inkscape="http://www.inkscape.org/namespaces/inkscape"
   width="360"
   height="360"
   viewBox="0 0 95.250003 95.250003"
   version="1.1"
   id="svg8"
   inkscape:version="0.92.2 (5c3e80d, 2017-08-06)"
   sodipodi:docname="Logo2-Negro-con-borde.svg">
  <defs
     id="defs2" />
  <sodipodi:namedview
     id="base"
     pagecolor="#ffffff"
     bordercolor="#666666"
     borderopacity="1.0"
     inkscape:pageopacity="0"
     inkscape:pageshadow="2"
     inkscape:zoom="1.4"
     inkscape:cx="8.3940314"
     inkscape:cy="151.64832"
     inkscape:document-units="mm"
     inkscape:current-layer="layer1"
     showgrid="false"
     units="px"
     showguides="false"
     inkscape:guide-bbox="true"
     inkscape:window-width="1920"
     inkscape:window-height="1017"
     inkscape:window-x="-8"
     inkscape:window-y="-8"
     inkscape:window-maximized="1"
     inkscape:pagecheckerboard="false"
     inkscape:showpageshadow="false"
     showborder="false">
    <inkscape:grid
       type="xygrid"
       id="grid817"
       empspacing="10"
       dotted="false" />
    <sodipodi:guide
       position="-68.791669,63.500002"
       orientation="0,1"
       id="guide823"
       inkscape:locked="false" />
    <sodipodi:guide
       position="-47.625002,31.750001"
       orientation="0,1"
       id="guide825"
       inkscape:locked="false" />
    <sodipodi:guide
       position="63.500002,134.9375"
       orientation="1,0"
       id="guide827"
       inkscape:locked="false" />
    <sodipodi:guide
       position="31.750001,129.64584"
       orientation="1,0"
       id="guide829"
       inkscape:locked="false" />
  </sodipodi:namedview>
  <metadata
     id="metadata5">
    <rdf:RDF>
      <cc:Work
         rdf:about="">
        <dc:format>image/svg+xml</dc:format>
        <dc:type
           rdf:resource="http://purl.org/dc/dcmitype/StillImage" />
        <dc:title />
      </cc:Work>
    </rdf:RDF>
  </metadata>
  <g
     inkscape:label="Capa 1"
     inkscape:groupmode="layer"
     id="layer1"
     transform="translate(0,-201.74998)">
    <a
       id="a1429">
      <g
         id="g1427" />
    </a>
    <g
       id="g1967">
      <g
         id="g1415" />
      <g
         id="g1958">
        <path
           id="path1388"
           style="color:#000000;font-style:normal;font-variant:normal;font-weight:normal;font-stretch:normal;font-size:medium;line-height:normal;font-family:sans-serif;font-variant-ligatures:normal;font-variant-position:normal;font-variant-caps:normal;font-variant-numeric:normal;font-variant-alternates:normal;font-feature-settings:normal;text-indent:0;text-align:start;text-decoration:none;text-decoration-line:none;text-decoration-style:solid;text-decoration-color:#000000;letter-spacing:normal;word-spacing:normal;text-transform:none;writing-mode:lr-tb;direction:ltr;text-orientation:mixed;dominant-baseline:auto;baseline-shift:baseline;text-anchor:start;white-space:normal;shape-padding:0;clip-rule:nonzero;display:inline;overflow:visible;visibility:visible;opacity:1;isolation:auto;mix-blend-mode:normal;color-interpolation:sRGB;color-interpolation-filters:linearRGB;solid-color:#000000;solid-opacity:1;vector-effect:none;fill:#000000;fill-opacity:1;fill-rule:nonzero;stroke:none;stroke-width:4;stroke-linecap:round;stroke-linejoin:round;stroke-miterlimit:4;stroke-dasharray:none;stroke-dashoffset:0;stroke-opacity:1;paint-order:markers stroke fill;color-rendering:auto;image-rendering:auto;shape-rendering:auto;text-rendering:auto;enable-background:accumulate"
           d="m 2.6152344,265.86719 a 2.0002,2.0002 0 0 0 -1.96875002,2.02929 v 26.13282 a 2.0002,2.0002 0 0 0 0.57617182,1.75586 2.0002,2.0002 0 0 0 0.013672,0.0156 2.0002,2.0002 0 0 0 0.029297,0.0273 2.0002,2.0002 0 0 0 1.703125,0.5254 H 92.279297 a 2.0002,2.0002 0 0 0 1.755859,-0.57618 2.0002,2.0002 0 0 0 0.01172,-0.01 2.0002,2.0002 0 0 0 0.01367,-0.0137 2.0002,2.0002 0 0 0 0.01758,-0.0195 2.0002,2.0002 0 0 0 0.525391,-1.70313 v -26.13477 a 2.0002,2.0002 0 1 0 -4,0 v 24.45704 H 4.6464844 v -24.45704 a 2.0002,2.0002 0 0 0 -2.03125,-2.02929 z m 0,-63.5 a 2.0002,2.0002 0 0 0 -1.4003906,0.60547 2.0002,2.0002 0 0 0 -0.015625,0.0137 2.0002,2.0002 0 0 0 -0.027344,0.0293 2.0002,2.0002 0 0 0 -0.52539062,1.70313 v 34.07227 a 2.0002,2.0002 0 1 0 4.00000002,0 V 206.39648 H 90.603516 v 32.39454 a 2.0002,2.0002 0 1 0 4,0 V 204.7207 a 2.0002,2.0002 0 0 0 -0.576172,-1.75586 2.0002,2.0002 0 0 0 -0.0098,-0.0117 2.0002,2.0002 0 0 0 -0.01367,-0.0137 2.0002,2.0002 0 0 0 -0.01953,-0.0176 2.0002,2.0002 0 0 0 -1.703125,-0.5254 H 2.9707031 a 2.0002,2.0002 0 0 0 -0.3554687,-0.0293 z m 52.3925776,83.15234 c -5.513578,1.56627 -10.306392,1.44202 -14.695312,0.0215 l -1.25,3.86718 c 5.16379,1.67133 10.877962,1.77614 17.054688,0.0215 z m -7.433593,-75.18555 a 2.0002,2.0002 0 0 0 -1.199219,0.4375 l -12.421875,9.93946 -17.529297,-5.00977 a 2.0002,2.0002 0 0 0 -2.148437,3.12305 l 7.9375,10.58398 a 2.0002,2.0002 0 1 0 3.199218,-2.40039 l -4.36914,-5.82617 12.802734,3.6582 a 2.0002,2.0002 0 0 0 1.798828,-0.36132 l 11.980469,-9.58399 11.980469,9.58399 a 2.0002,2.0002 0 0 0 1.798828,0.36132 l 12.802734,-3.6582 -4.36914,5.82617 a 2.0002,2.0002 0 1 0 3.199218,2.40039 l 7.9375,-10.58398 a 2.0002,2.0002 0 0 0 -2.148437,-3.12305 L 61.296875,220.71094 48.875,210.77148 a 2.0002,2.0002 0 0 0 -1.300781,-0.4375 z m 24.920083,36.17291 q 4.041414,-3.5769 9.345771,-3.5769 4.041415,0 7.072476,1.95103 4.041414,2.60139 4.041414,8.77966 0,6.50347 -4.041414,9.10485 -3.788827,2.43879 -7.830241,2.43879 -4.79918,0 -8.588006,-2.76396 v 2.76396 h -5.051768 v -31.70434 h 5.051768 z m 0,8.12932 q 0,4.71501 2.525884,6.34087 2.273295,1.46328 4.799179,1.46328 3.031062,0 4.79918,-1.1381 3.28365,-2.11363 3.28365,-7.3164 0,-5.04017 -3.031061,-6.99121 -1.768118,-1.1381 -4.546591,-1.1381 -2.778472,0 -5.304357,1.62586 -2.525884,1.62586 -2.525884,7.1538 z m -32.583906,7.43785 c -2.020707,-1.68463 -3.031061,-3.98185 -3.031061,-6.89166 0,-3.36926 1.010354,-5.97278 3.031061,-7.81056 1.852315,-1.68463 4.209807,-2.52694 7.072476,-2.52694 2.862669,0 5.135965,0.76573 6.819888,2.29722 2.525884,-1.83778 5.304356,-2.60352 8.335417,-2.29722 v 4.36472 c -2.357492,-0.6126 -4.630788,-0.6126 -6.819887,0 1.178746,1.22518 1.768119,3.2161 1.768119,5.97278 0,2.90981 -1.010353,5.2836 -3.031061,7.12138 -1.852315,1.68463 -4.209807,2.52694 -7.072476,2.52694 -1.515531,0 -2.946865,-0.30629 -4.294003,-0.91889 -1.515531,0.76574 -2.273296,1.60806 -2.273296,2.52695 0,0.61259 0.336785,1.22518 1.010354,1.83777 0.841962,0.76574 3.199453,1.14861 7.072476,1.14861 5.22016,0 8.672202,0.76574 10.356124,2.29722 1.515531,1.37833 2.273296,2.90982 2.273296,4.59444 0,1.99093 -0.757765,3.67556 -2.273296,5.05389 -2.020707,1.83778 -5.641141,2.75667 -10.861302,2.75667 -5.556945,0 -9.34577,-0.91889 -11.366478,-2.75667 -1.347138,-1.22519 -2.020707,-2.52694 -2.020707,-3.90527 0,-1.99093 1.515531,-3.8287 4.546591,-5.51333 -2.189099,-1.07204 -3.283649,-2.60352 -3.283649,-4.59444 0,-1.99093 1.347138,-3.75214 4.041414,-5.28361 z m 2.778473,11.02666 c -2.357492,1.22518 -3.536238,2.52694 -3.536238,3.90528 0,0.61258 0.42098,1.30175 1.262942,2.06749 1.347138,1.22519 3.957219,1.83778 7.830241,1.83778 3.367845,0 5.641141,-0.53602 6.819887,-1.60805 0.841962,-0.76574 1.262943,-1.60806 1.262943,-2.52695 0,-0.76574 -0.336785,-1.45491 -1.010354,-2.06749 -0.841962,-0.76575 -2.778473,-1.14861 -5.809534,-1.14861 -1.515531,0 -3.788826,-0.15315 -6.819887,-0.45945 z m 4.294003,-24.35055 c -1.347138,0 -2.525884,0.45945 -3.536237,1.37834 -1.010355,0.91888 -1.515531,2.60351 -1.515531,5.05389 0,1.99092 0.505176,3.44583 1.515531,4.36472 1.010353,0.91888 2.189099,1.37833 3.536237,1.37833 1.347138,0 2.525884,-0.45945 3.536238,-1.37833 1.010354,-0.91889 1.515531,-2.3738 1.515531,-4.36472 0,-2.45038 -0.505177,-4.13501 -1.515531,-5.05389 -1.010354,-0.91889 -2.1891,-1.37834 -3.536238,-1.37834 z M 22.734385,261.9526 q -4.041415,3.25172 -9.093184,3.25172 -3.7888256,0 -7.3250633,-2.2762 -4.294003,-2.76397 -4.294003,-9.26744 0,-5.36534 4.7991798,-8.45448 3.5362375,-2.27621 7.8302415,-2.27621 4.54659,0 8.082829,2.4388 v -11.86881 h 5.051768 v 31.70434 h -5.051768 z m -7.577653,-16.09605 q -2.273296,0 -4.294003,1.30068 -3.2836492,2.11362 -3.2836492,6.82863 0,5.36536 2.7784722,7.1538 1.768119,1.13811 4.546592,1.13811 2.273296,0 4.546592,-1.46328 3.283649,-2.11362 3.283649,-7.15381 0,-4.55241 -3.283649,-6.66603 -1.76812,-1.1381 -4.294004,-1.1381 z" />
      </g>
    </g>
  </g>
</svg>
